<?xml version="1.0" encoding="us-ascii" standalone="no"?><svg xmlns="http://www.w3.org/2000/svg" xmlns:xlink="http://www.w3.org/1999/xlink" contentStyleType="text/css" height="381px" preserveAspectRatio="none" style="width:893px;height:381px;background:#FFFFFF;" version="1.1" viewBox="0 0 893 381" width="893px" zoomAndPan="magnify"><defs/><g><!--cluster 6ebb7423072c5943f52c11274fd71b0b--><g id="cluster_6ebb7423072c5943f52c11274fd71b0b"><polygon fill="none" points="16,16,26,6,368,6,368,163.49,358,173.49,16,173.49,16,16" style="stroke:#181818;stroke-width:1.0;"/><line style="stroke:#181818;stroke-width:1.0;" x1="358" x2="368" y1="16" y2="6"/><line style="stroke:#181818;stroke-width:1.0;" x1="16" x2="358" y1="16" y2="16"/><line style="stroke:#181818;stroke-width:1.0;" x1="358" x2="358" y1="16" y2="173.49"/><text fill="#000000" font-family="sans-serif" font-size="14" font-weight="bold" lengthAdjust="spacing" textLength="83" x="146.5" y="31.9951">Dynamodb</text></g><!--cluster ba39a5f0aa547715c4df694144393752--><g id="cluster_ba39a5f0aa547715c4df694144393752"><polygon fill="none" points="392,16,402,6,876,6,876,163.49,866,173.49,392,173.49,392,16" style="stroke:#181818;stroke-width:1.0;"/><line style="stroke:#181818;stroke-width:1.0;" x1="866" x2="876" y1="16" y2="6"/><line style="stroke:#181818;stroke-width:1.0;" x1="392" x2="866" y1="16" y2="16"/><line style="stroke:#181818;stroke-width:1.0;" x1="866" x2="866" y1="16" y2="173.49"/><text fill="#000000" font-family="sans-serif" font-size="14" font-weight="bold" lengthAdjust="spacing" textLength="92" x="584" y="31.9951">Apigateway</text></g><!--cluster 04a7da3c5b04cad85da1eebb92315b8b--><g id="cluster_04a7da3c5b04cad85da1eebb92315b8b"><polygon fill="none" points="472,207.49,482,197.49,796,197.49,796,354.97,786,364.97,472,364.97,472,207.49" style="stroke:#181818;stroke-width:1.0;"/><line style="stroke:#181818;stroke-width:1.0;" x1="786" x2="796" y1="207.49" y2="197.49"/><line style="stroke:#181818;stroke-width:1.0;" x1="472" x2="786" y1="207.49" y2="207.49"/><line style="stroke:#181818;stroke-width:1.0;" x1="786" x2="786" y1="207.49" y2="364.97"/><text fill="#000000" font-family="sans-serif" font-size="14" font-weight="bold" lengthAdjust="spacing" textLength="61" x="599.5" y="223.4851">Lambda</text></g><!--entity 81784b81b67226bdcab8f6d8b4710323--><g id="elem_81784b81b67226bdcab8f6d8b4710323"><rect fill="#F1F1F1" height="111.4844" rx="2.5" ry="2.5" style="stroke:#181818;stroke-width:0.5;" width="320" x="32" y="46"/><rect fill="#F1F1F1" height="10" style="stroke:#181818;stroke-width:0.5;" width="15" x="332" y="51"/><rect fill="#F1F1F1" height="2" style="stroke:#181818;stroke-width:0.5;" width="4" x="330" y="53"/><rect fill="#F1F1F1" height="2" style="stroke:#181818;stroke-width:0.5;" width="4" x="330" y="57"/><text fill="#000000" font-family="sans-serif" font-size="14" font-weight="bold" lengthAdjust="spacing" textLength="280" x="47" y="78.9951">dynamodb_cloud-resume-challenge</text><text fill="#000000" font-family="sans-serif" font-size="14" lengthAdjust="spacing" textLength="4" x="47" y="95.292">&#160;</text><text fill="#000000" font-family="sans-serif" font-size="14" lengthAdjust="spacing" textLength="149" x="47" y="111.5889">terraform name: table</text><text fill="#000000" font-family="sans-serif" font-size="14" lengthAdjust="spacing" textLength="254" x="47" y="127.8857">terraform type: aws_dynamodb_table</text><text fill="#000000" font-family="sans-serif" font-size="14" lengthAdjust="spacing" textLength="4" x="47" y="144.1826">&#160;</text></g><!--entity c1ea9a59daafa13bfa64bffba1412a4e--><g id="elem_c1ea9a59daafa13bfa64bffba1412a4e"><rect fill="#F1F1F1" height="111.4844" rx="2.5" ry="2.5" style="stroke:#181818;stroke-width:0.5;" width="452" x="408" y="46"/><rect fill="#F1F1F1" height="10" style="stroke:#181818;stroke-width:0.5;" width="15" x="840" y="51"/><rect fill="#F1F1F1" height="2" style="stroke:#181818;stroke-width:0.5;" width="4" x="838" y="53"/><rect fill="#F1F1F1" height="2" style="stroke:#181818;stroke-width:0.5;" width="4" x="838" y="57"/><text fill="#000000" font-family="sans-serif" font-size="14" font-weight="bold" lengthAdjust="spacing" textLength="412" x="423" y="78.9951">apigateway_serverless_cloud_resume_challenge_gw</text><text fill="#000000" font-family="sans-serif" font-size="14" lengthAdjust="spacing" textLength="4" x="423" y="95.292">&#160;</text><text fill="#000000" font-family="sans-serif" font-size="14" lengthAdjust="spacing" textLength="135" x="423" y="111.5889">terraform name: api</text><text fill="#000000" font-family="sans-serif" font-size="14" lengthAdjust="spacing" textLength="285" x="423" y="127.8857">terraform type: aws_api_gateway_rest_api</text><text fill="#000000" font-family="sans-serif" font-size="14" lengthAdjust="spacing" textLength="4" x="423" y="144.1826">&#160;</text></g><!--entity 8e7ad03c1ebd3427f0d52e100c56dbbf--><g id="elem_8e7ad03c1ebd3427f0d52e100c56dbbf"><rect fill="#F1F1F1" height="111.4844" rx="2.5" ry="2.5" style="stroke:#181818;stroke-width:0.5;" width="293" x="487.5" y="237.49"/><rect fill="#F1F1F1" height="10" style="stroke:#181818;stroke-width:0.5;" width="15" x="760.5" y="242.49"/><rect fill="#F1F1F1" height="2" style="stroke:#181818;stroke-width:0.5;" width="4" x="758.5" y="244.49"/><rect fill="#F1F1F1" height="2" style="stroke:#181818;stroke-width:0.5;" width="4" x="758.5" y="248.49"/><text fill="#000000" font-family="sans-serif" font-size="14" font-weight="bold" lengthAdjust="spacing" textLength="161" x="502.5" y="270.4851">lambda_put_function</text><text fill="#000000" font-family="sans-serif" font-size="14" lengthAdjust="spacing" textLength="4" x="502.5" y="286.782">&#160;</text><text fill="#000000" font-family="sans-serif" font-size="14" lengthAdjust="spacing" textLength="177" x="502.5" y="303.0789">terraform name: put-visits</text><text fill="#000000" font-family="sans-serif" font-size="14" lengthAdjust="spacing" textLength="253" x="502.5" y="319.3757">terraform type: aws_lambda_function</text><text fill="#000000" font-family="sans-serif" font-size="14" lengthAdjust="spacing" textLength="4" x="502.5" y="335.6726">&#160;</text></g><!--link c1ea9a59daafa13bfa64bffba1412a4e to 8e7ad03c1ebd3427f0d52e100c56dbbf--><g id="link_c1ea9a59daafa13bfa64bffba1412a4e_8e7ad03c1ebd3427f0d52e100c56dbbf"><path codeLine="29" d="M634,157.8 C634,182.72 634,212.1 634,237.03 " fill="none" id="c1ea9a59daafa13bfa64bffba1412a4e-8e7ad03c1ebd3427f0d52e100c56dbbf" style="stroke:#181818;stroke-width:1.0;"/></g><!--SRC=[XP7RQkCm48Rl_HIYbm63ZfRTkq8l-mPb4JEQKTRWGx2Lf67PTr-jauRk4kZjh-7J_yt0CCpdiV_eftqrpSJYwVKomJWJFWbOHSE8tceZlOwkioOv7PNItYRo2YMANvM8ytYO9vwoQ9LlBROA6wzrWnG1szHGYzOhQRGHxzLkHpT-YCDyf7hXzJXo7N_2CF2qvzskgZ8l2wHv6KKPvMUH0GV-akRBeQHmNiCTTXsfVbI_RnelXtuFcSzmsKGGJ0SkIG1dlLSkMafDPvMrfZFUwNz5ec8eunq195064pGMKq9GLccml8d0_OUmydBYPU1rlLg5grMuMuNz-P5OGJpKAdduP1TK_XjybNk34GasCMd14vZeKDe8r3e2nULgdJRAOVl_XTW3ILFya8pLFabocfMKqJM4c3QnOQE7mp67T9nYxkVfKVdoNf_wjS_hGuSRvPDmhV_jOckglotv1m00]--></g></svg>